<?xml version="1.0" encoding="UTF-8"?>
<svg width="48px" height="48px" viewBox="0 0 48 48" version="1.1" xmlns="http://www.w3.org/2000/svg" xmlns:xlink="http://www.w3.org/1999/xlink">
    <!-- Generator: Sketch 51.2 (57519) - http://www.bohemiancoding.com/sketch -->
    <title>icon_3</title>
    <desc>Created with Sketch.</desc>
    <defs></defs>
    <g id="icon_3" stroke="none" stroke-width="1" fill="none" fill-rule="evenodd">
        <g id="Group" transform="translate(6.000000, 7.000000)" fill="#000000" fill-rule="nonzero">
            <path d="M4.16107611,12.0165 C3.54254507,12.0165 3.0328,12.526599 3.0328,13.1455686 L3.0328,27.8554415 C3.0328,28.4740716 3.54220567,28.9835 4.16107611,28.9835 L25.8552239,28.9835 C26.4735067,28.9835 26.9835,28.4736495 26.9835,27.8554415 L26.9835,13.1455686 C26.9835,12.5270213 26.4731673,12.0165 25.8552239,12.0165 L4.16107611,12.0165 Z M7.76512723,9.9835 C7.77609086,9.97643895 7.78723434,9.96955795 7.79855607,9.9628632 L13.3120851,6.70261107 L22.2584832,1.41303881 C23.7384706,0.537837483 25.6416427,1.06016089 26.4893752,2.56444572 L33.6044199,15.1838732 C34.4446163,16.673312 33.9436658,18.5877606 32.4783051,19.4543122 L31.0613333,20.2928849 C30.5805778,20.5773991 29.9602041,20.418314 29.67569,19.9375584 C29.3911758,19.4568029 29.5502609,18.8364292 30.0310165,18.5519151 L31.4482777,17.7131711 C31.9616981,17.4095562 32.1440802,16.7125586 31.8423228,16.177625 L24.727068,3.55782485 C24.4331679,3.03630498 23.7874964,2.85910115 23.2881528,3.15439158 L14.3417298,8.4439786 L11.73819,9.9835 L25.8552239,9.9835 C27.5961303,9.9835 29.0165,11.4043945 29.0165,13.1455686 L29.0165,27.8554415 C29.0165,29.5965719 27.5961741,31.0165 25.8552239,31.0165 L4.16107611,31.0165 C2.41939048,31.0165 0.9998,29.5968462 0.9998,27.8554415 L0.9998,13.1455686 C0.9998,11.4041199 2.41943413,9.9835 4.16107611,9.9835 L7.76512723,9.9835 Z" id="Combined-Shape"></path>
            <path d="M24,19.988 C24.5589122,19.988 25.012,20.4410878 25.012,21 C25.012,21.5589122 24.5589122,22.012 24,22.012 L2,22.012 C1.44108783,22.012 0.988,21.5589122 0.988,21 C0.988,20.4410878 1.44108783,19.988 2,19.988 L24,19.988 Z" id="Stroke-3"></path>
            <path d="M24,23.988 C24.5589122,23.988 25.012,24.4410878 25.012,25 C25.012,25.5589122 24.5589122,26.012 24,26.012 L2,26.012 C1.44108783,26.012 0.988,25.5589122 0.988,25 C0.988,24.4410878 1.44108783,23.988 2,23.988 L24,23.988 Z" id="Stroke-5"></path>
        </g>
    </g>
</svg>