<?xml version="1.0" encoding="UTF-8"?>
<svg width="48px" height="48px" viewBox="0 0 48 48" version="1.1" xmlns="http://www.w3.org/2000/svg" xmlns:xlink="http://www.w3.org/1999/xlink">
    <!-- Generator: Sketch 51.2 (57519) - http://www.bohemiancoding.com/sketch -->
    <title>icon_5</title>
    <desc>Created with Sketch.</desc>
    <defs></defs>
    <g id="icon_5" stroke="none" stroke-width="1" fill="none" fill-rule="evenodd">
        <path d="M17.2178218,10.012 C16.0174996,10.012 15.012,11.0665373 15.012,12.3747534 L15.012,35.6252466 C15.012,36.9334627 16.0174996,37.988 17.2178218,37.988 L29.7831683,37.988 C30.9832016,37.988 31.988,36.9337506 31.988,35.6252466 L31.988,12.3747534 C31.988,11.0662494 30.9832016,10.012 29.7831683,10.012 L17.2178218,10.012 Z M17.2178218,7.988 L29.7831683,7.988 C32.1233534,7.988 34.012,9.9695961 34.012,12.3747534 L34.012,35.6252466 C34.012,38.0304039 32.1233534,40.012 29.7831683,40.012 L17.2178218,40.012 C14.8775499,40.012 12.988,38.0302977 12.988,35.6252466 L12.988,12.3747534 C12.988,9.96970235 14.8775499,7.988 17.2178218,7.988 Z M29,12.986 L18,12.986 C17.4399833,12.986 16.986,13.4399833 16.986,14 C16.986,14.5600167 17.4399833,15.014 18,15.014 L29,15.014 C29.5600167,15.014 30.014,14.5600167 30.014,14 C30.014,13.4399833 29.5600167,12.986 29,12.986 Z M29,32.986 L18,32.986 C17.4399833,32.986 16.986,33.4399833 16.986,34 C16.986,34.5600167 17.4399833,35.014 18,35.014 L29,35.014 C29.5600167,35.014 30.014,34.5600167 30.014,34 C30.014,33.4399833 29.5600167,32.986 29,32.986 Z M27.8278471,20.3887477 C26.234644,18.1194548 23.2703457,18.7557124 21.0131817,21.0127201 C18.7560609,23.2696848 18.1193996,26.233987 20.3881077,27.8276908 C20.8452287,28.1488054 21.4761133,28.0385505 21.797228,27.5814295 C22.1183426,27.1243085 22.0080877,26.4934239 21.5509667,26.1723092 C20.6093856,25.510875 20.9467774,23.9399749 22.4436092,22.4432467 C23.940398,20.9465615 25.5110028,20.6094465 26.1721529,21.5511614 C26.4931446,22.0083688 27.1239995,22.1187934 27.5812068,21.7978017 C28.0384142,21.47681 28.1488388,20.8459551 27.8278471,20.3887477 Z" id="Combined-Shape" fill="#000000" fill-rule="nonzero"></path>
    </g>
</svg>