<?xml version="1.0" encoding="UTF-8"?>
<svg width="48px" height="48px" viewBox="0 0 48 48" version="1.1" xmlns="http://www.w3.org/2000/svg" xmlns:xlink="http://www.w3.org/1999/xlink">
    <!-- Generator: Sketch 51.2 (57519) - http://www.bohemiancoding.com/sketch -->
    <title>icon_2</title>
    <desc>Created with Sketch.</desc>
    <defs></defs>
    <g id="icon_2" stroke="none" stroke-width="1" fill="none" fill-rule="evenodd">
        <path d="M8.0001,20.9725667 C8.0001,14.2832187 14.9940925,8.9885 23.5062875,8.9885 C32.0176647,8.9885 39.0115,14.2833457 39.0115,20.9725667 C39.0115,26.7096758 34.0171872,31.149305 27.6751702,32.5203892 C27.539996,32.5439864 27.422783,32.5664972 27.2983309,32.5922263 C27.2366724,32.6049735 27.0304391,32.6490175 26.987842,32.6578772 C26.7742652,32.702299 26.5984511,32.7330191 26.3719631,32.7630138 C26.307399,32.7715643 26.2396397,32.7798871 26.1678441,32.7880716 C25.6128029,32.8513447 25.1115601,32.452688 25.0482869,31.8976468 C24.9850138,31.3426056 25.3836705,30.8413628 25.9387117,30.7780896 C25.9985779,30.771265 26.0542024,30.7644328 26.106368,30.7575243 C26.2803503,30.7344831 26.4081698,30.7121491 26.575895,30.677264 C26.611005,30.6699615 26.8188278,30.6255781 26.888759,30.6111206 C27.0328798,30.5813252 27.1704829,30.5548985 27.2873608,30.5353253 C32.7585617,29.3517816 36.9885,25.5916331 36.9885,20.9725667 C36.9885,15.5425084 31.0035991,11.0115 23.5062875,11.0115 C16.0081452,11.0115 10.0231,15.5424071 10.0231,20.9725667 C10.0231,24.5168568 12.586907,27.7884914 16.7299425,29.579038 C17.1003399,29.7391172 17.3401626,30.104026 17.3401626,30.507535 L17.3401626,35.3512451 L21.0680932,31.2396965 C21.4433298,30.8258467 22.0830107,30.7945445 22.4968606,31.1697811 C22.9107104,31.5450177 22.9420127,32.1846986 22.5667761,32.5985485 L17.078004,38.6521357 C16.45655,39.3375397 15.3171626,38.8979036 15.3171626,37.9727097 L15.3171626,31.15804 C10.8363178,29.0090609 8.0001,25.2086707 8.0001,20.9725667 Z M30.0878996,15.99 C30.6457071,15.99 31.0978996,16.4421924 31.0978996,17 C31.0978996,17.5578076 30.6457071,18.01 30.0878996,18.01 L17,18.01 C16.4421924,18.01 15.99,17.5578076 15.99,17 C15.99,16.4421924 16.4421924,15.99 17,15.99 L30.0878996,15.99 Z M30.0878996,19.99 C30.6457071,19.99 31.0978996,20.4421924 31.0978996,21 C31.0978996,21.5578076 30.6457071,22.01 30.0878996,22.01 L17,22.01 C16.4421924,22.01 15.99,21.5578076 15.99,21 C15.99,20.4421924 16.4421924,19.99 17,19.99 L30.0878996,19.99 Z M24,23.991 C24.5572553,23.991 25.009,24.4427447 25.009,25 C25.009,25.5572553 24.5572553,26.009 24,26.009 L17,26.009 C16.4427447,26.009 15.991,25.5572553 15.991,25 C15.991,24.4427447 16.4427447,23.991 17,23.991 L24,23.991 Z" id="Combined-Shape" fill="#000000" fill-rule="nonzero"></path>
    </g>
</svg>