<?xml version="1.0" encoding="UTF-8"?>
<svg width="48px" height="48px" viewBox="0 0 48 48" version="1.1" xmlns="http://www.w3.org/2000/svg" xmlns:xlink="http://www.w3.org/1999/xlink">
    <!-- Generator: Sketch 51.2 (57519) - http://www.bohemiancoding.com/sketch -->
    <title>icon_1</title>
    <desc>Created with Sketch.</desc>
    <defs></defs>
    <g id="icon_1" stroke="none" stroke-width="1" fill="none" fill-rule="evenodd">
        <g id="Group" transform="translate(5.000000, 7.000000)" fill="#000000" fill-rule="nonzero">
            <path d="M15.1843219,25.9885 C15.7429579,25.9885 16.1958219,26.441364 16.1958219,27 C16.1958219,27.558636 15.7429579,28.0115 15.1843219,28.0115 L4.70968533,28.0115 C2.65188768,28.0115 0.9885,26.2854134 0.9885,24.1884932 L0.9885,4.8115068 C0.9885,2.71458658 2.65188768,0.9885 4.70968533,0.9885 L15.2903147,0.9885 C17.3478327,0.9885 19.0115,2.71530811 19.0115,4.8115068 L19.0115,9.30686171 C19.0115,9.86549773 18.558636,10.3183617 18,10.3183617 C17.441364,10.3183617 16.9885,9.86549773 16.9885,9.30686171 L16.9885,4.8115068 C16.9885,3.81606668 16.2133523,3.0115 15.2903147,3.0115 L4.70968533,3.0115 C3.78625043,3.0115 3.0115,3.81545349 3.0115,4.8115068 L3.0115,24.1884932 C3.0115,25.1845465 3.78625043,25.9885 4.70968533,25.9885 L15.1843219,25.9885 Z" id="Stroke-1"></path>
            <path d="M15,4.986 C15.5600167,4.986 16.014,5.43998326 16.014,6 C16.014,6.56001674 15.5600167,7.014 15,7.014 L5,7.014 C4.43998326,7.014 3.986,6.56001674 3.986,6 C3.986,5.43998326 4.43998326,4.986 5,4.986 L15,4.986 Z" id="Stroke-3"></path>
            <path d="M13,21.9905 C13.5575315,21.9905 14.0095,22.4424685 14.0095,23 C14.0095,23.5575315 13.5575315,24.0095 13,24.0095 L5,24.0095 C4.44246855,24.0095 3.9905,23.5575315 3.9905,23 C3.9905,22.4424685 4.44246855,21.9905 5,21.9905 L13,21.9905 Z" id="Stroke-5"></path>
            <path d="M13.8278583,12.2500475 C14.1488412,12.7072611 14.0384044,13.3381139 13.5811909,13.6590967 C13.1239773,13.9800796 12.4931245,13.8696428 12.1721417,13.4124293 C11.6721604,12.7002473 10.4252082,12.9679453 9.19649159,14.1965301 C7.96770899,15.425181 7.70014965,16.6717811 8.4128939,17.1721231 C8.8701177,17.4930913 8.98057467,18.1239406 8.65960644,18.5811644 C8.33863822,19.0383882 7.70778894,19.1488452 7.25056513,18.8278769 C5.2101208,17.3954979 5.7768541,14.7550003 7.76609126,12.7659764 C9.75519234,10.7770886 12.3957995,10.2101981 13.8278583,12.2500475 Z" id="Stroke-7"></path>
            <path d="M13.1260475,19.6053129 L19.4080832,30.5717679 C19.6329253,30.9638835 20.1338418,31.0992441 20.5188009,30.8754792 L36.5742954,21.5332795 C36.9631976,21.3069593 37.1005941,20.7898135 36.8739165,20.3936996 L30.5921349,9.42768744 C30.3673893,9.03619595 29.8664491,8.90093238 29.4821788,9.12455706 L13.4268592,18.4666551 C13.0365822,18.6940802 12.8994646,19.2093645 13.1260475,19.6053129 Z M12.4038086,16.7098237 L28.4596785,7.36740538 C29.8202946,6.57559979 31.5702729,7.04812787 32.3557292,8.41634024 L38.6382038,19.3835615 C39.4188688,20.7477548 38.9530129,22.5011855 37.5967957,23.2904312 L21.540857,32.6328893 C20.1790698,33.4244549 18.4291827,32.9515901 17.6442348,31.5826723 L11.3617602,20.6154511 C10.5810133,19.2511146 11.0471284,17.5000107 12.4038086,16.7098237 Z" id="Stroke-9"></path>
            <path d="M29.4793303,15.1322172 C29.9585935,14.8446592 30.5802249,15.0000671 30.8677828,15.4793303 C31.1553408,15.9585935 30.9999329,16.5802249 30.5206697,16.8677828 L15.5206697,25.8677828 C15.0414065,26.1553408 14.4197751,25.9999329 14.1322172,25.5206697 C13.8446592,25.0414065 14.0000671,24.4197751 14.4793303,24.1322172 L29.4793303,15.1322172 Z" id="Stroke-11"></path>
            <path d="M31.4793303,19.1322172 C31.9585935,18.8446592 32.5802249,19.0000671 32.8677828,19.4793303 C33.1553408,19.9585935 32.9999329,20.5802249 32.5206697,20.8677828 L17.5206697,29.8677828 C17.0414065,30.1553408 16.4197751,29.9999329 16.1322172,29.5206697 C15.8446592,29.0414065 16.0000671,28.4197751 16.4793303,28.1322172 L31.4793303,19.1322172 Z" id="Stroke-13"></path>
        </g>
    </g>
</svg>