<?xml version="1.0" encoding="UTF-8"?>
<svg width="48px" height="48px" viewBox="0 0 48 48" version="1.1" xmlns="http://www.w3.org/2000/svg" xmlns:xlink="http://www.w3.org/1999/xlink">
    <!-- Generator: Sketch 51.2 (57519) - http://www.bohemiancoding.com/sketch -->
    <title>icon_4</title>
    <desc>Created with Sketch.</desc>
    <defs></defs>
    <g id="icon_4" stroke="none" stroke-width="1" fill="none" fill-rule="evenodd">
        <path d="M30.0326741,17.0115 C29.4852273,17.0115 29.0115,17.5093973 29.0115,18.1367946 L29.0115,32.8632054 C29.0115,33.4906027 29.4852273,33.9885 30.0326741,33.9885 L37.9683577,33.9885 C38.5154419,33.9885 38.9885,33.4909577 38.9885,32.8632054 L38.9885,18.1367946 C38.9885,17.5090423 38.5154419,17.0115 37.9683577,17.0115 L30.0326741,17.0115 Z M19.0641288,36.0095 C19.0429231,36.0108267 19.0215402,36.0115 19,36.0115 C18.9784598,36.0115 18.9570769,36.0108267 18.9358712,36.0095 L14,36.0095 C13.4424685,36.0095 12.9905,35.5575315 12.9905,35 C12.9905,34.4424685 13.4424685,33.9905 14,33.9905 L17.9885,33.9905 L17.9885,32 C17.9885,31.441364 18.441364,30.9885 19,30.9885 C19.558636,30.9885 20.0115,31.441364 20.0115,32 L20.0115,33.9905 L24,33.9905 C24.5575315,33.9905 25.0095,34.4424685 25.0095,35 C25.0095,35.5575315 24.5575315,36.0095 24,36.0095 L19.0641288,36.0095 Z M26.9885,30.0115 L8,30.0115 C7.44136398,30.0115 6.9885,29.558636 6.9885,29 L6.9885,12 C6.9885,11.441364 7.44136398,10.9885 8,10.9885 L32,10.9885 C32.558636,10.9885 33.0115,11.441364 33.0115,12 C33.0115,12.558636 32.558636,13.0115 32,13.0115 L9.0115,13.0115 L9.0115,27.9885 L26.9885,27.9885 L26.9885,18.1367946 C26.9885,16.4140207 28.3448198,14.9885 30.0326741,14.9885 L37.9683577,14.9885 C39.6561832,14.9885 41.0115,16.4139643 41.0115,18.1367946 L41.0115,32.8632054 C41.0115,34.5860357 39.6561832,36.0115 37.9683577,36.0115 L30.0326741,36.0115 C28.3448198,36.0115 26.9885,34.5859793 26.9885,32.8632054 L26.9885,30.0115 Z M36.8278248,22.973003 C35.71761,21.391788 33.7250167,21.8195582 32.2722874,23.2722874 C30.8195582,24.7250167 30.391788,26.71761 31.973003,27.8278248 C32.430198,28.148834 33.0610571,28.0384337 33.3820664,27.5812387 C33.7030757,27.1240437 33.5926753,26.4931845 33.1354803,26.1721752 C32.8818066,25.9940639 33.0103821,25.3951468 33.7027645,24.7027645 C34.3951468,24.0103821 34.9940639,23.8818066 35.1721752,24.1354803 C35.4931845,24.5926753 36.1240437,24.7030757 36.5812387,24.3820664 C37.0384337,24.0610571 37.148834,23.430198 36.8278248,22.973003 Z" id="Combined-Shape" fill="#000000" fill-rule="nonzero"></path>
    </g>
</svg>